# xmcd
#
# Track frame offsets:
# 150
# 14438
# 30787
# 40536
# 54734
# 67482
# 77229
# 90217
# 106633
# 119203
#
# Disc length: 1750 seconds
#
#
# Revision: 0
# Processed by: cddbd v1.5.2PL0 Copyright (c) Steve Scherf et al.
# Submitted via: FreeRIP 2.944 
#
DISCID=7806d40a
DTITLE=Merle Haggard  - The Roots of My Rasing
DYEAR=1900
DGENRE=country
TTITLE0=Branded Man
TTITLE1=Hungry Eyes
TTITLE2=Mama Tried
TTITLE3=Always Wanting You
TTITLE4=Sing Me Back Home
TTITLE5=The Legend of Bonnie and Clyde
TTITLE6=Kentucky Gambler
TTITLE7=Daddy Frank
TTITLE8=The Bottle Let Me Down
TTITLE9=The Roots of My Raising
EXTD=
EXTT0=
EXTT1=
EXTT2=
EXTT3=
EXTT4=
EXTT5=
EXTT6=
EXTT7=
EXTT8=
EXTT9=
PLAYORDER=
